<mxfile host="app.diagrams.net" modified="2021-11-14T05:03:40.584Z" agent="5.0 (Windows NT 10.0; Win64; x64) AppleWebKit/537.36 (KHTML, like Gecko) Chrome/95.0.4638.69 Safari/537.36" etag="lS-KVx4chChRD_s9SlAZ" version="15.6.8" type="github">
  <diagram id="3IL6RDIU-IzKaQWcNYAf" name="第 1 页">
    <mxGraphModel dx="2012" dy="735" grid="1" gridSize="10" guides="1" tooltips="1" connect="1" arrows="1" fold="1" page="1" pageScale="1" pageWidth="827" pageHeight="1169" math="0" shadow="0">
      <root>
        <mxCell id="0" />
        <mxCell id="1" parent="0" />
        <mxCell id="2Rwu7XhD_gyZ9agXo13--3" value="CalendarUpdate&lt;br&gt;Thread" style="shape=umlLifeline;perimeter=lifelinePerimeter;whiteSpace=wrap;html=1;container=1;collapsible=0;recursiveResize=0;outlineConnect=0;" vertex="1" parent="1">
          <mxGeometry x="220" y="120" width="100" height="790" as="geometry" />
        </mxCell>
        <mxCell id="2Rwu7XhD_gyZ9agXo13--4" value="" style="html=1;points=[];perimeter=orthogonalPerimeter;" vertex="1" parent="2Rwu7XhD_gyZ9agXo13--3">
          <mxGeometry x="45" y="80" width="10" height="360" as="geometry" />
        </mxCell>
        <mxCell id="2Rwu7XhD_gyZ9agXo13--5" value="CalendarUpdate&lt;br&gt;Thread" style="shape=umlLifeline;perimeter=lifelinePerimeter;whiteSpace=wrap;html=1;container=1;collapsible=0;recursiveResize=0;outlineConnect=0;" vertex="1" parent="2Rwu7XhD_gyZ9agXo13--3">
          <mxGeometry width="100" height="790" as="geometry" />
        </mxCell>
        <mxCell id="2Rwu7XhD_gyZ9agXo13--6" value="" style="html=1;points=[];perimeter=orthogonalPerimeter;" vertex="1" parent="2Rwu7XhD_gyZ9agXo13--5">
          <mxGeometry x="45" y="80" width="10" height="360" as="geometry" />
        </mxCell>
        <mxCell id="2Rwu7XhD_gyZ9agXo13--7" value="CalendarUpdate&lt;br&gt;Thread" style="shape=umlLifeline;perimeter=lifelinePerimeter;whiteSpace=wrap;html=1;container=1;collapsible=0;recursiveResize=0;outlineConnect=0;" vertex="1" parent="2Rwu7XhD_gyZ9agXo13--5">
          <mxGeometry width="100" height="790" as="geometry" />
        </mxCell>
        <mxCell id="2Rwu7XhD_gyZ9agXo13--8" value="" style="html=1;points=[];perimeter=orthogonalPerimeter;" vertex="1" parent="2Rwu7XhD_gyZ9agXo13--7">
          <mxGeometry x="45" y="80" width="10" height="570" as="geometry" />
        </mxCell>
        <mxCell id="2Rwu7XhD_gyZ9agXo13--33" value="" style="html=1;points=[];perimeter=orthogonalPerimeter;" vertex="1" parent="2Rwu7XhD_gyZ9agXo13--7">
          <mxGeometry x="50" y="210" width="10" height="40" as="geometry" />
        </mxCell>
        <mxCell id="2Rwu7XhD_gyZ9agXo13--34" value="解析日历名称&lt;br&gt;日历状态&lt;br&gt;日历版本" style="edgeStyle=orthogonalEdgeStyle;html=1;align=left;spacingLeft=2;endArrow=block;rounded=0;entryX=1;entryY=0;" edge="1" target="2Rwu7XhD_gyZ9agXo13--33" parent="2Rwu7XhD_gyZ9agXo13--7">
          <mxGeometry relative="1" as="geometry">
            <mxPoint x="55" y="190" as="sourcePoint" />
            <Array as="points">
              <mxPoint x="85" y="190" />
            </Array>
          </mxGeometry>
        </mxCell>
        <mxCell id="2Rwu7XhD_gyZ9agXo13--40" value="" style="html=1;points=[];perimeter=orthogonalPerimeter;" vertex="1" parent="2Rwu7XhD_gyZ9agXo13--7">
          <mxGeometry x="50" y="360" width="10" height="40" as="geometry" />
        </mxCell>
        <mxCell id="2Rwu7XhD_gyZ9agXo13--41" value="比较日历版本&lt;br&gt;和日历时间戳" style="edgeStyle=orthogonalEdgeStyle;html=1;align=left;spacingLeft=2;endArrow=block;rounded=0;entryX=1;entryY=0;" edge="1" target="2Rwu7XhD_gyZ9agXo13--40" parent="2Rwu7XhD_gyZ9agXo13--7">
          <mxGeometry relative="1" as="geometry">
            <mxPoint x="55" y="340" as="sourcePoint" />
            <Array as="points">
              <mxPoint x="85" y="340" />
            </Array>
          </mxGeometry>
        </mxCell>
        <mxCell id="2Rwu7XhD_gyZ9agXo13--16" value="CalendarUpdate&lt;br&gt;Thread" style="shape=umlLifeline;perimeter=lifelinePerimeter;whiteSpace=wrap;html=1;container=1;collapsible=0;recursiveResize=0;outlineConnect=0;" vertex="1" parent="1">
          <mxGeometry x="88" y="120" width="100" height="790" as="geometry" />
        </mxCell>
        <mxCell id="2Rwu7XhD_gyZ9agXo13--18" value="CalendarUpdate&lt;br&gt;Thread" style="shape=umlLifeline;perimeter=lifelinePerimeter;whiteSpace=wrap;html=1;container=1;collapsible=0;recursiveResize=0;outlineConnect=0;" vertex="1" parent="2Rwu7XhD_gyZ9agXo13--16">
          <mxGeometry width="100" height="790" as="geometry" />
        </mxCell>
        <mxCell id="2Rwu7XhD_gyZ9agXo13--20" value="CalendarCache" style="shape=umlLifeline;perimeter=lifelinePerimeter;whiteSpace=wrap;html=1;container=1;collapsible=0;recursiveResize=0;outlineConnect=0;" vertex="1" parent="2Rwu7XhD_gyZ9agXo13--18">
          <mxGeometry width="100" height="790" as="geometry" />
        </mxCell>
        <mxCell id="2Rwu7XhD_gyZ9agXo13--35" value="" style="html=1;points=[];perimeter=orthogonalPerimeter;" vertex="1" parent="2Rwu7XhD_gyZ9agXo13--20">
          <mxGeometry x="45" y="260" width="10" height="60" as="geometry" />
        </mxCell>
        <mxCell id="2Rwu7XhD_gyZ9agXo13--45" value="" style="html=1;points=[];perimeter=orthogonalPerimeter;" vertex="1" parent="2Rwu7XhD_gyZ9agXo13--20">
          <mxGeometry x="45" y="510" width="10" height="60" as="geometry" />
        </mxCell>
        <mxCell id="2Rwu7XhD_gyZ9agXo13--50" value="" style="html=1;points=[];perimeter=orthogonalPerimeter;" vertex="1" parent="2Rwu7XhD_gyZ9agXo13--20">
          <mxGeometry x="45" y="620.62" width="10" height="80" as="geometry" />
        </mxCell>
        <mxCell id="2Rwu7XhD_gyZ9agXo13--22" value="CalendarCache" style="swimlane;fontStyle=1;align=center;verticalAlign=top;childLayout=stackLayout;horizontal=1;startSize=26;horizontalStack=0;resizeParent=1;resizeParentMax=0;resizeLast=0;collapsible=1;marginBottom=0;" vertex="1" parent="1">
          <mxGeometry x="-400" y="220" width="350" height="104" as="geometry">
            <mxRectangle x="-100" y="180" width="120" height="26" as="alternateBounds" />
          </mxGeometry>
        </mxCell>
        <mxCell id="2Rwu7XhD_gyZ9agXo13--23" value="+ CalendarCacheMap: Map&lt;String, Cache&lt;String, Boolean&gt;&gt;&#xa;+ CalendarVersionMap: Map&lt;String, Pair&lt;Integer,Long&gt;&gt;" style="text;strokeColor=none;fillColor=none;align=left;verticalAlign=top;spacingLeft=4;spacingRight=4;overflow=hidden;rotatable=0;points=[[0,0.5],[1,0.5]];portConstraint=eastwest;" vertex="1" parent="2Rwu7XhD_gyZ9agXo13--22">
          <mxGeometry y="26" width="350" height="44" as="geometry" />
        </mxCell>
        <mxCell id="2Rwu7XhD_gyZ9agXo13--24" value="" style="line;strokeWidth=1;fillColor=none;align=left;verticalAlign=middle;spacingTop=-1;spacingLeft=3;spacingRight=3;rotatable=0;labelPosition=right;points=[];portConstraint=eastwest;" vertex="1" parent="2Rwu7XhD_gyZ9agXo13--22">
          <mxGeometry y="70" width="350" height="8" as="geometry" />
        </mxCell>
        <mxCell id="2Rwu7XhD_gyZ9agXo13--25" value="+ method(type): type" style="text;strokeColor=none;fillColor=none;align=left;verticalAlign=top;spacingLeft=4;spacingRight=4;overflow=hidden;rotatable=0;points=[[0,0.5],[1,0.5]];portConstraint=eastwest;" vertex="1" parent="2Rwu7XhD_gyZ9agXo13--22">
          <mxGeometry y="78" width="350" height="26" as="geometry" />
        </mxCell>
        <mxCell id="2Rwu7XhD_gyZ9agXo13--29" value="Console" style="shape=umlLifeline;perimeter=lifelinePerimeter;whiteSpace=wrap;html=1;container=1;collapsible=0;recursiveResize=0;outlineConnect=0;" vertex="1" parent="1">
          <mxGeometry x="419" y="120" width="100" height="780" as="geometry" />
        </mxCell>
        <mxCell id="2Rwu7XhD_gyZ9agXo13--30" value="" style="html=1;points=[];perimeter=orthogonalPerimeter;" vertex="1" parent="2Rwu7XhD_gyZ9agXo13--29">
          <mxGeometry x="45" y="90" width="10" height="80" as="geometry" />
        </mxCell>
        <mxCell id="2Rwu7XhD_gyZ9agXo13--42" value="" style="html=1;points=[];perimeter=orthogonalPerimeter;" vertex="1" parent="2Rwu7XhD_gyZ9agXo13--29">
          <mxGeometry x="45" y="419" width="10" height="80" as="geometry" />
        </mxCell>
        <mxCell id="2Rwu7XhD_gyZ9agXo13--54" value="" style="html=1;points=[];perimeter=orthogonalPerimeter;" vertex="1" parent="2Rwu7XhD_gyZ9agXo13--29">
          <mxGeometry x="45" y="630" width="10" height="60" as="geometry" />
        </mxCell>
        <mxCell id="2Rwu7XhD_gyZ9agXo13--31" value="获取日历列表" style="html=1;verticalAlign=bottom;endArrow=block;entryX=0;entryY=0;rounded=0;exitX=0.979;exitY=0.017;exitDx=0;exitDy=0;exitPerimeter=0;" edge="1" target="2Rwu7XhD_gyZ9agXo13--30" parent="1" source="2Rwu7XhD_gyZ9agXo13--8">
          <mxGeometry relative="1" as="geometry">
            <mxPoint x="280" y="210" as="sourcePoint" />
          </mxGeometry>
        </mxCell>
        <mxCell id="2Rwu7XhD_gyZ9agXo13--32" value="response" style="html=1;verticalAlign=bottom;endArrow=open;dashed=1;endSize=8;exitX=0;exitY=0.95;rounded=0;entryX=1.049;entryY=0.152;entryDx=0;entryDy=0;entryPerimeter=0;" edge="1" source="2Rwu7XhD_gyZ9agXo13--30" parent="1" target="2Rwu7XhD_gyZ9agXo13--8">
          <mxGeometry relative="1" as="geometry">
            <mxPoint x="280" y="286" as="targetPoint" />
          </mxGeometry>
        </mxCell>
        <mxCell id="2Rwu7XhD_gyZ9agXo13--36" value="获取日历缓存" style="html=1;verticalAlign=bottom;endArrow=block;entryX=1;entryY=0;rounded=0;exitX=-0.138;exitY=0.317;exitDx=0;exitDy=0;exitPerimeter=0;" edge="1" target="2Rwu7XhD_gyZ9agXo13--35" parent="1" source="2Rwu7XhD_gyZ9agXo13--8">
          <mxGeometry relative="1" as="geometry">
            <mxPoint x="225" y="380" as="sourcePoint" />
          </mxGeometry>
        </mxCell>
        <mxCell id="2Rwu7XhD_gyZ9agXo13--37" value="返回日历缓存" style="html=1;verticalAlign=bottom;endArrow=open;dashed=1;endSize=8;exitX=1;exitY=0.95;rounded=0;entryX=0.005;entryY=0.416;entryDx=0;entryDy=0;entryPerimeter=0;" edge="1" source="2Rwu7XhD_gyZ9agXo13--35" parent="1" target="2Rwu7XhD_gyZ9agXo13--8">
          <mxGeometry relative="1" as="geometry">
            <mxPoint x="260" y="437" as="targetPoint" />
          </mxGeometry>
        </mxCell>
        <mxCell id="2Rwu7XhD_gyZ9agXo13--43" value="对版本有更新的日历&lt;br&gt;或者时间戳过期的日历，&lt;br&gt;获取日历详情" style="html=1;verticalAlign=bottom;endArrow=block;entryX=0;entryY=0;rounded=0;exitX=1.103;exitY=0.782;exitDx=0;exitDy=0;exitPerimeter=0;" edge="1" target="2Rwu7XhD_gyZ9agXo13--42" parent="1">
          <mxGeometry relative="1" as="geometry">
            <mxPoint x="276.0300000000002" y="538.72" as="sourcePoint" />
          </mxGeometry>
        </mxCell>
        <mxCell id="2Rwu7XhD_gyZ9agXo13--44" value="返回日历详情" style="html=1;verticalAlign=bottom;endArrow=open;dashed=1;endSize=8;exitX=0;exitY=0.95;rounded=0;entryX=1.181;entryY=0.947;entryDx=0;entryDy=0;entryPerimeter=0;" edge="1" source="2Rwu7XhD_gyZ9agXo13--42" parent="1">
          <mxGeometry relative="1" as="geometry">
            <mxPoint x="276.8100000000004" y="614.6200000000001" as="targetPoint" />
          </mxGeometry>
        </mxCell>
        <mxCell id="2Rwu7XhD_gyZ9agXo13--46" value="更新缓存的CacheMap&lt;br&gt;和versionMap" style="html=1;verticalAlign=bottom;endArrow=block;entryX=1;entryY=0;rounded=0;exitX=-0.033;exitY=0.754;exitDx=0;exitDy=0;exitPerimeter=0;" edge="1" target="2Rwu7XhD_gyZ9agXo13--45" parent="1" source="2Rwu7XhD_gyZ9agXo13--8">
          <mxGeometry relative="1" as="geometry">
            <mxPoint x="262" y="630" as="sourcePoint" />
          </mxGeometry>
        </mxCell>
        <mxCell id="2Rwu7XhD_gyZ9agXo13--47" value="return" style="html=1;verticalAlign=bottom;endArrow=open;dashed=1;endSize=8;exitX=1;exitY=0.95;rounded=0;entryX=-0.006;entryY=0.854;entryDx=0;entryDy=0;entryPerimeter=0;" edge="1" source="2Rwu7XhD_gyZ9agXo13--45" parent="1" target="2Rwu7XhD_gyZ9agXo13--8">
          <mxGeometry relative="1" as="geometry">
            <mxPoint x="260" y="687" as="targetPoint" />
          </mxGeometry>
        </mxCell>
        <mxCell id="2Rwu7XhD_gyZ9agXo13--48" value="获取日历时指定起止时间，&lt;br&gt;当前时间往前往后各一年" style="text;html=1;align=center;verticalAlign=middle;resizable=0;points=[];autosize=1;strokeColor=none;fillColor=none;" vertex="1" parent="1">
          <mxGeometry x="280" y="545" width="160" height="30" as="geometry" />
        </mxCell>
        <mxCell id="2Rwu7XhD_gyZ9agXo13--49" value="isDateInCalendar" style="shape=umlLifeline;perimeter=lifelinePerimeter;whiteSpace=wrap;html=1;container=1;collapsible=0;recursiveResize=0;outlineConnect=0;" vertex="1" parent="1">
          <mxGeometry x="-92" y="120" width="100" height="780" as="geometry" />
        </mxCell>
        <mxCell id="2Rwu7XhD_gyZ9agXo13--53" value="" style="html=1;points=[];perimeter=orthogonalPerimeter;" vertex="1" parent="2Rwu7XhD_gyZ9agXo13--49">
          <mxGeometry x="45" y="590" width="10" height="130" as="geometry" />
        </mxCell>
        <mxCell id="2Rwu7XhD_gyZ9agXo13--51" value="从缓存中获取日期的value" style="html=1;verticalAlign=bottom;endArrow=block;entryX=0;entryY=0;rounded=0;exitX=1.167;exitY=0.034;exitDx=0;exitDy=0;exitPerimeter=0;" edge="1" target="2Rwu7XhD_gyZ9agXo13--50" parent="1">
          <mxGeometry relative="1" as="geometry">
            <mxPoint x="-35.32999999999993" y="740.0000000000001" as="sourcePoint" />
          </mxGeometry>
        </mxCell>
        <mxCell id="2Rwu7XhD_gyZ9agXo13--52" value="true or false" style="html=1;verticalAlign=bottom;endArrow=open;dashed=1;endSize=8;exitX=0;exitY=0.95;rounded=0;entryX=1;entryY=0.167;entryDx=0;entryDy=0;entryPerimeter=0;" edge="1" source="2Rwu7XhD_gyZ9agXo13--50" parent="1">
          <mxGeometry relative="1" as="geometry">
            <mxPoint x="-37" y="815.8100000000001" as="targetPoint" />
          </mxGeometry>
        </mxCell>
        <mxCell id="2Rwu7XhD_gyZ9agXo13--55" value="缓存失效从控制台获取当天的" style="html=1;verticalAlign=bottom;endArrow=block;entryX=0;entryY=0;rounded=0;exitX=1.033;exitY=0.117;exitDx=0;exitDy=0;exitPerimeter=0;" edge="1" target="2Rwu7XhD_gyZ9agXo13--54" parent="1" source="2Rwu7XhD_gyZ9agXo13--50">
          <mxGeometry relative="1" as="geometry">
            <mxPoint x="394" y="750" as="sourcePoint" />
          </mxGeometry>
        </mxCell>
        <mxCell id="2Rwu7XhD_gyZ9agXo13--56" value="true or false" style="html=1;verticalAlign=bottom;endArrow=open;dashed=1;endSize=8;exitX=0;exitY=0.95;rounded=0;entryX=0.929;entryY=0.828;entryDx=0;entryDy=0;entryPerimeter=0;" edge="1" source="2Rwu7XhD_gyZ9agXo13--54" parent="1" target="2Rwu7XhD_gyZ9agXo13--50">
          <mxGeometry relative="1" as="geometry">
            <mxPoint x="394" y="826" as="targetPoint" />
          </mxGeometry>
        </mxCell>
      </root>
    </mxGraphModel>
  </diagram>
</mxfile>
